<svg width="301" height="359" viewBox="0 0 301 359" fill="none" xmlns="http://www.w3.org/2000/svg">
<path d="M1.74885 0.591988C1.90461 0.466287 2.22163 0.2089 2.3835 0.0831998C6.63948 -0.0903867 10.9016 0.0712225 15.164 0.0173508C33.0804 44.7069 51.003 89.3964 68.9255 134.086C86.6206 89.3844 104.37 44.7009 122.101 0.0173508C126.153 0.0472795 130.212 -0.0245377 134.264 0.029334C135.408 -0.186153 135.761 1.07085 135.605 1.94477C135.587 33.1245 135.605 64.3042 135.593 95.4899C132.157 96.304 128.769 97.3694 125.537 98.806C125.608 70.8227 125.555 42.8393 125.567 14.856C108.267 58.6836 91.0085 102.535 73.7324 146.375C70.5179 146.363 67.3033 146.375 64.0887 146.369C46.651 102.505 29.1715 58.6597 11.692 14.8141C11.6798 58.0072 11.6798 101.206 11.692 144.399C11.8355 145.261 11.5301 146.584 10.3628 146.351C7.69317 146.381 5.01741 146.447 2.35357 146.309C1.55735 145.992 1.67097 145.136 1.64714 144.447C1.66516 98.5486 1.65295 52.656 1.65905 6.7573C1.69509 4.70419 1.52742 2.63911 1.74885 0.591988" fill="#CC0033"/>
<path d="M160.435 2.5395C160.285 1.67755 160.626 0.414565 161.764 0.630052C164.595 0.552237 167.426 0.642 170.258 0.636014C170.378 1.67155 170.455 2.7071 170.479 3.74264C170.461 35.054 170.455 66.3714 170.485 97.6828C170.851 97.8445 171.587 98.1737 171.958 98.3413C171.587 98.1976 170.845 97.9043 170.479 97.7607C170.461 100.299 170.473 102.843 170.473 105.381C170.467 114.293 170.455 123.206 170.479 132.113C173.377 124.834 176.244 117.532 179.111 110.241C180.003 107.978 180.901 105.716 181.793 103.453C195.286 69.1668 208.809 34.8924 222.308 0.612077C225.51 0.624049 228.713 0.618069 231.915 0.618069C249.419 44.4516 266.845 88.3152 284.336 132.155C284.372 88.9496 284.354 45.7386 284.348 2.53351C284.21 1.70149 284.528 0.432499 285.641 0.636014C288.287 0.606086 290.951 0.516305 293.597 0.701863C294.704 0.91735 294.261 2.34795 294.399 3.13807C294.369 50.2339 294.369 97.3297 294.399 144.425C294.243 145.204 294.722 146.706 293.597 146.88C289.365 147.113 285.114 146.898 280.882 146.969C262.942 102.328 245.115 57.6442 227.12 13.0325C214.34 45.0023 201.715 77.038 189.001 109.032C188.085 111.354 187.073 113.641 186.301 116.011C186.403 116.179 186.606 116.514 186.702 116.682L186.199 116.125C182.081 126.39 178.052 136.698 173.939 146.969C169.665 146.88 165.379 147.149 161.117 146.868C160.201 146.395 160.524 145.263 160.423 144.437C160.459 130.311 160.435 116.179 160.441 102.052C160.441 99.6581 160.435 97.2639 160.441 94.8755C160.441 64.0969 160.453 33.3182 160.435 2.5395" fill="#676767"/>
<path d="M135.589 95.4873C143.682 93.4222 152.254 93.2247 160.437 94.8707C160.432 97.2591 160.437 99.6533 160.437 102.048C152.254 100.455 143.664 100.539 135.601 102.73C132.129 103.682 128.777 105.029 125.562 106.627C116.559 111.248 108.945 118.568 103.952 127.367C94.5178 143.529 94.9249 165.006 105.173 180.706C110.004 188.398 116.882 194.904 124.963 199.094C125.825 201.686 125.317 204.464 125.394 207.139C125.131 207.031 124.61 206.804 124.347 206.696C115.966 203.045 108.729 197.053 102.958 190.02C94.3742 179.222 89.7229 165.389 90.0342 151.598C90.3994 139.668 94.3083 127.834 101.384 118.191C107.556 109.769 115.912 102.922 125.532 98.8034C128.765 97.3668 132.153 96.3013 135.589 95.4873" fill="black"/>
<path d="M170.478 97.7591C170.843 97.9027 171.585 98.1961 171.956 98.3397C175.398 99.6985 178.679 101.452 181.792 103.452C180.9 105.714 180.002 107.977 179.11 110.239C176.374 108.372 173.471 106.78 170.472 105.379C170.472 102.841 170.46 100.297 170.478 97.7591" fill="black"/>
<path d="M125.566 106.629C128.78 105.03 132.133 103.684 135.605 102.732C135.599 116.427 135.581 130.129 135.616 143.824C135.503 144.65 135.838 145.763 134.958 146.266C131.899 146.434 128.792 146.565 125.757 146.128C125.578 145.165 125.566 144.183 125.554 143.207C125.584 131.014 125.572 118.821 125.566 106.629" fill="#CC0033"/>
<path d="M186.303 116.01C187.075 113.64 188.087 111.353 189.003 109.031C204.274 122.57 211.637 144.484 207.428 164.482C206.77 167.577 205.998 170.666 204.872 173.629C200.419 185.881 191.703 196.47 180.646 203.348C167.477 211.393 151.117 214.457 136.049 210.722C136.043 208.31 136.049 205.904 136.055 203.491C147.92 206.448 160.892 205.497 171.895 199.984C183.196 194.686 192.295 185.031 197.24 173.599C198.539 170.666 199.527 167.601 200.233 164.47C201.634 157.85 201.789 150.973 200.73 144.286C199.072 133.913 193.942 124.246 186.704 116.68C186.609 116.513 186.405 116.177 186.303 116.01" fill="black"/>
<path d="M160.719 164.463C173.889 164.481 187.058 164.469 200.228 164.469C199.521 167.6 198.534 170.664 197.235 173.597C185.604 173.621 173.973 173.585 162.341 173.621C161.503 173.591 160.546 173.687 159.959 172.957C159.672 170.407 159.887 167.833 159.845 165.277C160.061 165.074 160.498 164.667 160.719 164.463" fill="#CC0033"/>
<path d="M207.426 164.48C237.111 164.462 266.791 164.474 296.476 164.474C297.2 164.414 297.835 164.786 298.463 165.085C298.386 167.808 298.434 170.526 298.41 173.249C254.8 213.928 211.269 254.697 167.684 295.406C210.623 295.418 253.555 295.424 296.494 295.4C297.919 295.496 299.493 295.101 300.804 295.849C301.109 298.232 300.972 300.65 300.948 303.044C301.157 304.253 299.798 304.726 298.847 304.547C250.143 304.487 201.428 304.63 152.724 304.475C152.539 304.289 152.162 303.924 151.976 303.738C151.797 301.135 151.958 298.525 151.904 295.927C195.31 255.128 238.769 214.389 282.187 173.608C256.417 173.608 230.64 173.579 204.87 173.626C205.995 170.663 206.767 167.575 207.426 164.48" fill="#CC0033"/>
<path d="M2.10645 165.98C6.58996 165.974 11.0738 165.968 15.5573 165.98C38.7717 192.916 62.0339 219.816 85.2661 246.734C98.6512 262.147 111.863 277.716 125.361 293.028C125.475 264.47 125.427 235.906 125.385 207.342C125.128 207.18 124.613 206.863 124.35 206.701C124.613 206.809 125.134 207.037 125.397 207.144C125.32 204.469 125.828 201.691 124.966 199.1L125.409 199.333C125.439 188.217 125.415 177.096 125.421 165.98C128.959 165.974 132.503 165.974 136.047 165.974C136.047 178.479 136.041 190.989 136.053 203.493C136.047 205.905 136.041 208.312 136.047 210.724C136.047 241.898 136.047 273.071 136.047 304.245C131.82 304.245 127.594 304.245 123.368 304.245C86.4933 261.549 49.7084 218.775 12.7499 176.162C12.7081 218.852 12.7438 261.549 12.7319 304.245C9.18813 304.245 5.65019 304.245 2.10645 304.239C2.10645 258.155 2.11255 212.065 2.10645 165.98Z" fill="#676767"/>
<path d="M40.7061 322.205C41.1969 322.205 42.1787 322.199 42.6695 322.193C42.6635 323.881 42.6635 325.569 42.6635 327.263C42.1727 327.263 41.1969 327.269 40.7061 327.275C40.7061 325.581 40.7061 323.893 40.7061 322.205Z" fill="#CC0033"/>
<path d="M105.954 322.203C106.445 322.197 107.421 322.191 107.912 322.191C107.912 333.965 107.912 345.739 107.912 357.513C107.421 357.513 106.445 357.513 105.954 357.513C105.954 345.739 105.96 333.971 105.954 322.203Z" fill="#CC0033"/>
<path d="M1.90946 337.527C3.02881 332.929 8.20104 330.164 12.6907 331.457C15.3963 331.978 17.4496 334.21 18.1081 336.838C19.0659 334.851 20.3529 332.828 22.46 331.924C25.5908 330.625 29.6015 330.906 32.1336 333.312C34.0193 335.276 34.4682 338.131 34.4503 340.753C34.4383 346.338 34.4443 351.922 34.4443 357.513C33.9534 357.513 32.9777 357.513 32.4868 357.513C32.4808 351.731 32.4928 345.948 32.4868 340.166C32.4868 337.981 32.0319 335.503 30.1881 334.102C27.4225 331.912 23.1484 332.642 20.7659 335.066C18.97 337.095 18.2037 339.867 18.2697 342.542C18.2758 347.535 18.2816 352.521 18.2758 357.513C17.7908 357.513 16.815 357.513 16.3242 357.513C16.3181 351.725 16.3303 345.937 16.3242 340.148C16.3541 337.796 15.7195 335.144 13.6423 333.767C10.4458 331.738 5.98005 333.121 3.87909 336.096C2.50808 337.921 1.95131 340.232 1.95741 342.495C1.9455 347.499 1.96932 352.503 1.95741 357.513C1.46661 357.513 0.490805 357.513 0 357.513C0 348.929 0 340.352 0 331.768C0.490805 331.768 1.46661 331.768 1.95741 331.768C1.96352 333.683 1.97543 335.605 1.90946 337.527" fill="#CC0033"/>
<path d="M257.547 337.532C259.636 331.361 268.071 329.272 273.147 332.983C275.691 334.923 276.254 338.347 276.284 341.351C276.284 346.739 276.278 352.126 276.284 357.513C275.793 357.513 274.817 357.513 274.326 357.513C274.32 352.126 274.332 346.732 274.332 341.345C274.32 338.831 273.919 335.94 271.8 334.294C268.939 332.187 264.748 332.361 261.851 334.306C259.014 336.233 257.655 339.723 257.589 343.063C257.517 347.876 257.589 352.694 257.565 357.513C257.074 357.513 256.098 357.513 255.607 357.513C255.607 348.929 255.613 340.352 255.607 331.768C256.098 331.774 257.08 331.774 257.565 331.78C257.565 333.696 257.583 335.611 257.547 337.532Z" fill="#CC0033"/>
<path d="M40.712 331.78C41.1969 331.774 42.1787 331.774 42.6695 331.768C42.6575 340.352 42.6635 348.929 42.6635 357.513C42.1727 357.513 41.1969 357.513 40.7061 357.513C40.7061 348.935 40.7061 340.358 40.712 331.78" fill="#CC0033"/>
<path d="M137.262 331.756C137.956 331.774 138.656 331.792 139.351 331.822C141.835 339.687 144.224 347.577 146.75 355.43C149.132 347.547 151.515 339.657 153.879 331.768C154.747 331.768 155.615 331.768 156.489 331.774C158.842 339.675 161.266 347.559 163.655 355.448C166.151 347.583 168.539 339.682 171.012 331.81C171.718 331.786 172.43 331.768 173.143 331.762C170.365 340.346 167.57 348.923 164.792 357.513C163.99 357.507 163.194 357.507 162.398 357.513C160.003 349.66 157.573 341.806 155.208 333.941C152.808 341.8 150.365 349.654 147.971 357.513C147.145 357.507 146.325 357.507 145.505 357.513C142.787 348.917 139.997 340.346 137.262 331.756" fill="#CC0033"/>
<path d="M201.133 331.936C201.624 331.936 202.599 331.93 203.09 331.93C203.096 333.857 203.096 335.791 203.06 337.724C204.665 333.66 209.1 331.678 213.255 331.684C213.261 332.151 213.267 333.079 213.273 333.54C210.268 333.438 207.179 334.551 205.275 336.946C203.653 338.801 203.114 341.315 203.096 343.716C203.066 348.313 203.102 352.916 203.09 357.513C202.599 357.513 201.624 357.513 201.139 357.513C201.133 348.983 201.139 340.46 201.133 331.936" fill="#CC0033"/>
<path d="M281.066 331.78C287.256 331.768 293.439 331.774 299.629 331.774C299.629 332.199 299.629 333.037 299.629 333.462C293.757 340.926 287.914 348.421 282.03 355.879C288.148 355.873 294.265 355.879 300.383 355.873C300.371 356.286 300.341 357.106 300.33 357.513C293.457 357.513 286.585 357.513 279.713 357.513C279.713 357.082 279.707 356.22 279.707 355.789C285.484 348.301 291.362 340.896 297.145 333.408C291.787 333.408 286.43 333.408 281.072 333.408C281.072 333.001 281.066 332.187 281.066 331.78" fill="#CC0033"/>
<path fill-rule="evenodd" clip-rule="evenodd" d="M69.3821 322.195C69.0155 322.196 68.6488 322.198 68.4034 322.198C68.4125 324.145 68.4077 326.093 68.4029 328.042C68.3952 331.208 68.3874 334.375 68.4393 337.539C66.0388 330.919 56.8381 329.237 51.6481 333.529C48.5113 336.151 47.3979 340.406 47.2842 344.339C47.2962 348.2 48.1462 352.378 50.9417 355.233C54.0126 358.292 58.9392 358.807 62.8841 357.334C65.3684 356.383 67.0984 354.198 68.4153 351.977C68.3914 353.819 68.3974 355.661 68.4034 357.51L68.4034 357.514H70.3608V322.192C70.1154 322.192 69.7488 322.193 69.3821 322.195ZM64.9448 335.218C62.5383 332.752 58.6473 332.243 55.4807 333.35C52.0685 334.463 50.0811 337.929 49.5364 341.305C48.836 345.46 49.297 350.158 52.0805 353.498C55.1754 357.251 61.5566 357.533 64.9508 354.049C67.5547 351.571 68.4048 347.794 68.3748 344.322C68.2431 341.048 67.3991 337.546 64.9448 335.218Z" fill="#CC0033"/>
<path fill-rule="evenodd" clip-rule="evenodd" d="M98.4946 322.194H96.5431C96.5472 323.94 96.5415 325.686 96.5359 327.432C96.5249 330.801 96.5139 334.17 96.5731 337.536C94.1666 330.916 84.9599 329.246 79.7759 333.543C76.6511 336.153 75.5257 340.403 75.418 344.324C75.4299 348.197 76.28 352.38 79.0755 355.242C82.1464 358.283 87.0611 358.809 91 357.349C93.5022 356.391 95.2322 354.2 96.5491 351.968C96.5252 353.811 96.5312 355.667 96.5372 357.516H98.4946C98.4946 353.592 98.494 349.667 98.4933 345.742C98.492 337.893 98.4906 330.044 98.4946 322.194ZM93.0777 335.218C90.6593 332.746 86.7564 332.243 83.5777 333.362C78.6751 335.074 77.1007 340.91 77.4 345.597C77.5677 348.692 78.5254 351.906 80.7942 354.121C84.0566 357.287 89.8931 357.323 93.0897 354.043C95.6877 351.559 96.5377 347.788 96.5078 344.31C96.3761 341.042 95.5261 337.546 93.0777 335.218Z" fill="#CC0033"/>
<path fill-rule="evenodd" clip-rule="evenodd" d="M132.286 334.392C127.988 329.956 119.751 330.052 115.807 334.925C112.736 338.713 111.993 343.981 112.885 348.674C113.538 352.367 115.938 355.892 119.524 357.257C123.535 358.784 128.419 358.335 131.831 355.629C133.915 353.923 134.89 351.271 135.459 348.728C134.998 348.787 134.064 348.919 133.597 348.985C133.408 349.394 133.235 349.815 133.063 350.237C132.547 351.495 132.029 352.761 131.047 353.738C127.575 357.293 121.056 357.521 117.59 353.833C115.22 351.541 114.549 348.117 114.418 344.951C117.959 344.942 121.498 344.943 125.037 344.945C128.575 344.946 132.113 344.948 135.651 344.938C135.693 341.204 134.932 337.193 132.286 334.392ZM130.583 335.472C127.464 332.15 121.67 331.845 118.354 335.029C115.929 337.1 114.876 340.243 114.403 343.301C120.856 343.307 127.309 343.307 133.762 343.301C133.481 340.464 132.678 337.525 130.583 335.472Z" fill="#CC0033"/>
<path fill-rule="evenodd" clip-rule="evenodd" d="M233.13 334.068C228.754 329.986 220.87 330.16 217.009 334.882C213.986 338.558 213.22 343.676 213.968 348.273C214.543 351.948 216.746 355.545 220.248 357.072C224.324 358.825 229.436 358.43 232.974 355.647C235.063 353.941 236.057 351.283 236.626 348.727C236.165 348.793 235.237 348.919 234.77 348.979C234.598 349.358 234.437 349.748 234.276 350.138C233.692 351.553 233.101 352.984 231.933 354.025C228.377 357.311 222.103 357.425 218.727 353.803C216.381 351.505 215.722 348.105 215.578 344.956C219.119 344.941 222.66 344.943 226.201 344.944C229.742 344.946 233.282 344.947 236.823 344.933C236.859 341.06 236.021 336.858 233.13 334.068ZM231.72 335.449C228.595 332.151 222.818 331.857 219.502 335.036C217.09 337.107 216.042 340.243 215.557 343.302C222.01 343.308 228.463 343.308 234.916 343.302C234.641 340.453 233.833 337.502 231.72 335.449Z" fill="#CC0033"/>
<path fill-rule="evenodd" clip-rule="evenodd" d="M189.962 331.753C186.364 330.801 182.24 330.873 178.983 332.837C176.595 334.267 175.799 337.134 175.458 339.72C175.93 339.72 176.882 339.714 177.361 339.708C177.744 337.751 178.349 335.644 180.061 334.429C182.611 332.579 186.107 332.394 189.034 333.387C191.046 334.153 192.925 336.027 192.782 338.325C192.841 339.69 192.758 341.516 191.267 342.114C189.282 342.906 187.138 343.068 184.997 343.23C182.346 343.43 179.699 343.63 177.361 345.024C172.925 347.442 173.147 355.128 177.828 357.157C183.006 359.365 190.291 357.905 192.752 352.404C192.774 352.727 192.775 353.068 192.776 353.415C192.778 354.62 192.78 355.9 193.709 356.756C194.695 357.633 196.049 357.518 197.301 357.412C197.502 357.395 197.7 357.378 197.894 357.366C197.882 356.864 197.876 356.374 197.87 355.883L197.87 355.882C197.721 355.878 197.56 355.879 197.391 355.88C196.285 355.887 194.88 355.896 194.823 354.499C194.648 351.424 194.677 348.342 194.707 345.26C194.733 342.535 194.758 339.809 194.643 337.086C194.547 334.471 192.422 332.352 189.962 331.753ZM185.701 344.705C183.257 344.889 180.813 345.074 178.617 346.238C175.175 348.064 175.366 353.726 178.766 355.516C183.058 357.599 189.23 356.39 191.583 351.966C192.816 349.928 192.793 347.564 192.771 345.245C192.765 344.547 192.758 343.853 192.786 343.173C190.589 344.337 188.145 344.521 185.701 344.705Z" fill="#CC0033"/>
</svg>
