<svg viewBox="0 0 145 26" id="logo-dark-theme" xmlns="http://www.w3.org/2000/svg">
    <path d="M66.83 6.53c-.15-.21-.34-.37-.58-.49-.23-.12-.5-.18-.78-.18-.45 0-.83.09-1.13.26-.29.17-.52.41-.67.73-.04.08-.07.16-.1.26h3.51c-.04-.21-.12-.4-.24-.57Zm-50.93.06c-.15-.21-.35-.37-.58-.49-.23-.12-.5-.18-.78-.18-.45 0-.83.09-1.13.26-.3.17-.52.41-.67.73-.04.08-.07.16-.1.26h3.51c-.04-.21-.12-.4-.24-.57Zm8.35-.38c-.3-.19-.64-.28-1.03-.28s-.73.09-1.02.28c-.29.19-.52.45-.68.79-.16.34-.25.74-.25 1.18s.08.86.25 1.21c.16.34.39.6.68.79.29.19.63.28 1.02.28s.73-.09 1.03-.28.53-.45.7-.79c.17-.35.26-.75.26-1.2s-.09-.84-.26-1.18c-.17-.34-.4-.6-.7-.79Zm97.49-.13c-.29-.19-.64-.28-1.03-.28s-.73.09-1.02.28c-.29.19-.52.45-.68.79-.17.34-.25.74-.25 1.18s.08.86.25 1.21c.16.34.39.6.68.79.57.37 1.46.38 2.05 0 .3-.19.53-.46.7-.79.17-.35.26-.75.26-1.2s-.09-.84-.26-1.18c-.17-.34-.4-.6-.7-.79Zm17.67-.06c-.3-.19-.63-.29-1.03-.29s-.73.1-1.03.29c-.3.2-.53.46-.7.82-.17.35-.25.76-.25 1.22s.09.88.25 1.23c.17.35.4.62.7.82.29.2.64.29 1.02.29s.73-.1 1.03-.29c.3-.2.53-.47.7-.82.17-.35.26-.76.26-1.23s-.09-.87-.26-1.22-.4-.62-.7-.82Zm-30.09.06c-.29-.19-.64-.28-1.03-.28s-.73.09-1.02.28c-.29.19-.52.46-.68.79-.17.34-.25.74-.25 1.18s.08.86.25 1.21c.16.34.39.6.68.79.58.37 1.46.37 2.05 0 .3-.19.53-.46.7-.79.17-.35.26-.75.26-1.2s-.09-.84-.26-1.18c-.17-.34-.4-.6-.7-.79Z" style="fill:none">
	</path>
	<path d="M43.22 7.47v4.88h2.24V7.34c0-.74-.11-1.37-.32-1.87-.22-.52-.56-.91-.99-1.17-.43-.26-.97-.39-1.6-.39-.45 0-.88.1-1.31.29-.37.17-.7.38-.99.65V.89h-2.22v11.46h2.24V7.4c0-.21.04-.4.12-.57.08-.18.2-.33.34-.47.15-.14.32-.24.52-.32.2-.08.43-.11.67-.11.29 0 .54.04.74.15.19.1.33.26.42.48.1.24.15.55.15.92ZM33.1 12.35h2.24V6.08h1.63V3.97h-1.63v-1.9H33.1v1.9h-1.64v2.11h1.64v6.27zm-7.87-7.54c-.07-.07-.15-.14-.22-.21-.27-.22-.58-.4-.93-.52-.35-.12-.74-.18-1.16-.18-.72 0-1.38.19-1.96.55-.58.37-1.04.88-1.37 1.53-.33.64-.5 1.38-.5 2.2s.17 1.56.5 2.2c.33.64.78 1.16 1.33 1.54.56.38 1.19.57 1.88.57.4 0 .78-.06 1.14-.19a3.652 3.652 0 0 0 1.28-.76v.8h2.27V4.06h-2.25v.75Zm-.28 4.56c-.17.34-.4.6-.7.79s-.64.28-1.03.28-.73-.09-1.02-.28c-.3-.19-.52-.45-.68-.79-.17-.35-.25-.75-.25-1.21s.08-.84.25-1.18c.16-.33.39-.6.68-.79.29-.19.63-.28 1.02-.28s.73.09 1.03.28c.3.19.53.45.7.79.17.34.26.74.26 1.18s-.09.86-.26 1.2ZM28.37.89h2.25v11.46h-2.25zM2.96 7.9h4.37v4.31h2.34V1.35H7.33v4.33H2.96V1.35H.62v10.86h2.34V7.9zM113.38.75h2.25v11.46h-2.25zm30.53 11.13s-.52-.5-.9-1.07c-.15-.22-.31-.71-.38-.92l-.02-.05c-.04-.11-.07-.48-.08-.7V.75h-2.24v3.83l-.13-.1c-.29-.21-.63-.39-1-.51a3.57 3.57 0 0 0-1.16-.19c-.73 0-1.4.19-1.98.56-.58.37-1.04.89-1.38 1.53-.33.64-.5 1.38-.5 2.2s.17 1.57.51 2.21c.34.64.8 1.15 1.38 1.52.58.37 1.25.56 1.98.56.38 0 .75-.06 1.12-.18.36-.12.68-.28.96-.48.09-.06.17-.13.25-.21l.02.72 3.9.02-.36-.35Zm-3.8-2.59c-.17.35-.4.62-.7.82-.3.2-.63.29-1.03.29s-.73-.1-1.02-.29c-.3-.2-.53-.47-.7-.82-.17-.35-.25-.76-.25-1.23s.09-.87.25-1.22c.17-.35.4-.62.7-.82.29-.19.64-.29 1.03-.29s.73.09 1.03.29c.3.2.53.46.7.82.17.36.26.77.26 1.22s-.09.88-.26 1.23Zm-123.1 2.62c.36-.18.68-.41.96-.67l.13-.12-1.14-1.59-.17.14c-.34.29-.66.5-.94.61-.28.11-.6.17-.94.17-.49 0-.93-.1-1.29-.28-.35-.18-.63-.45-.83-.79a1.86 1.86 0 0 1-.2-.55h5.74l.02-.84c0-.58-.08-1.13-.26-1.62-.18-.5-.45-.93-.8-1.29a3.84 3.84 0 0 0-1.23-.86c-1.01-.45-2.26-.4-3.23 0-.52.21-.97.52-1.34.91-.37.39-.66.86-.87 1.39-.21.53-.31 1.12-.31 1.76 0 .81.19 1.54.56 2.17.37.63.89 1.14 1.56 1.5.66.36 1.43.55 2.28.55.39 0 .78-.05 1.17-.16.39-.1.77-.25 1.12-.42ZM12.73 6.9c.15-.32.37-.56.67-.73.3-.17.68-.26 1.13-.26a1.66 1.66 0 0 1 1.36.67c.12.17.2.37.24.57h-3.51c.03-.1.06-.18.1-.26Zm40.48 1.12v-.45c0-.16-.01-.33-.03-.52l-.05-.71c-.02-.29-.05-.62-.08-1.02v-.03l5.28 6.98h2.08V1.41h-2.33v3.34c0 .43 0 .84.02 1.22 0 .38.02.75.04 1.1.01.35.03.69.06 1.01.01.15.02.31.04.45l-5.29-7.12H50.9v10.86h2.33V8.02Zm48.91-3.09c-.35-.36-.76-.65-1.23-.86-1.01-.45-2.27-.39-3.23 0-.52.22-.97.52-1.34.91-.37.39-.66.86-.87 1.39-.21.53-.31 1.12-.31 1.76 0 .81.19 1.54.56 2.17.37.63.89 1.14 1.56 1.5.66.36 1.43.55 2.29.55.38 0 .78-.05 1.17-.16.39-.1.77-.25 1.12-.42.36-.18.68-.41.96-.67l.13-.12-1.14-1.59-.17.14c-.34.29-.65.5-.94.61-.29.11-.6.17-.94.17-.49 0-.93-.1-1.29-.28-.36-.18-.64-.45-.83-.79a1.86 1.86 0 0 1-.2-.55h5.74l.02-.84c0-.58-.08-1.12-.26-1.62-.18-.49-.45-.93-.8-1.29Zm-4.66 2.1a1.691 1.691 0 0 1 .77-.99c.3-.17.68-.26 1.13-.26a1.66 1.66 0 0 1 1.36.67c.12.17.2.36.24.57h-3.51Zm25.18-2.35c-.07-.07-.15-.14-.22-.21-.27-.22-.58-.4-.93-.52-.35-.12-.74-.18-1.16-.18-.72 0-1.38.19-1.96.55-.58.37-1.04.88-1.37 1.53-.33.64-.5 1.38-.5 2.2s.17 1.56.5 2.2c.33.64.78 1.16 1.33 1.54.56.38 1.19.57 1.88.57.4 0 .78-.06 1.14-.19a3.652 3.652 0 0 0 1.28-.76v.8h2.27V3.93h-2.25v.75Zm-.2 4.57c-.17.34-.4.61-.7.79-.58.38-1.47.37-2.05 0-.29-.19-.52-.46-.68-.79-.17-.34-.25-.75-.25-1.21s.08-.84.25-1.18c.16-.33.39-.6.68-.79.29-.19.63-.28 1.02-.28s.73.09 1.03.28c.3.19.53.45.7.79.17.34.26.74.26 1.18s-.09.86-.26 1.2Zm-12.23-4.57c-.07-.07-.15-.14-.22-.21-.27-.22-.58-.4-.93-.52-.35-.12-.74-.18-1.16-.18-.72 0-1.38.19-1.96.55-.58.37-1.04.88-1.37 1.53-.33.64-.5 1.38-.5 2.2s.17 1.56.5 2.2c.33.64.78 1.16 1.33 1.54.56.38 1.19.57 1.88.57.4 0 .78-.06 1.14-.19a3.652 3.652 0 0 0 1.28-.76v.8h2.27V3.93h-2.25v.75Zm-.2 4.57c-.17.34-.4.61-.7.79-.58.38-1.47.37-2.05 0-.29-.19-.52-.46-.68-.79-.17-.34-.25-.75-.25-1.21s.08-.84.25-1.18c.16-.33.39-.6.68-.79.29-.19.63-.28 1.02-.28s.73.09 1.03.28c.3.19.53.45.7.79.17.34.26.74.26 1.18s-.09.86-.26 1.2ZM94.16 3.01l.04-.05V1.35h-8.1v2.22h4.86l-5.25 7.01v1.63h8.65v-2.2h-5.41l5.21-7zm37.75 1.22c-.43-.26-.97-.39-1.6-.39-.45 0-.89.1-1.31.29-.38.17-.72.4-1.01.67v-.79h-2.2v8.27h2.24V7.33a1.355 1.355 0 0 1 .47-1.04c.14-.14.32-.24.51-.32.2-.08.43-.11.68-.11.29 0 .54.04.74.15.19.1.33.26.42.48.1.24.15.55.15.92v4.88h2.24V7.28c0-.74-.11-1.37-.32-1.87-.22-.52-.56-.91-.99-1.17ZM77.3 8.87l-1.57-3.54h-1.37l-1.57 3.6-1.5-4.79-2.31.02 2.78 8.27h1.58l1.65-4.05 1.73 4.05h1.59l2.79-8.28h-2.3l-1.5 4.72zm-8.39 2.31.13-.12-1.14-1.59-.17.14c-.34.29-.66.5-.94.61-.29.11-.6.17-.94.17-.49 0-.93-.1-1.29-.28-.36-.18-.64-.45-.83-.79a1.86 1.86 0 0 1-.2-.55h5.74l.02-.84c0-.58-.08-1.12-.26-1.62s-.45-.93-.8-1.29c-.35-.36-.76-.65-1.23-.86-1.01-.45-2.27-.4-3.23 0-.52.21-.97.52-1.34.91-.37.39-.66.85-.87 1.39-.21.53-.31 1.12-.31 1.76 0 .81.19 1.54.56 2.17.37.63.89 1.14 1.55 1.5.66.36 1.43.55 2.29.55.38 0 .78-.05 1.17-.16.39-.1.77-.25 1.12-.42.36-.18.68-.4.96-.67Zm-5.24-4.34c.15-.32.38-.56.67-.73.3-.17.68-.26 1.13-.26a1.66 1.66 0 0 1 1.36.67c.12.17.2.36.24.57h-3.51c.03-.1.06-.18.1-.26Z" style="fill:#fff">
	</path>
	<path d="M6.25 16.38H.3l.54 1.31h1.62v6.8h1.62v-6.8h2.17v-1.31zm5.81 4.92c0-.63-.13-1.18-.4-1.67a2.77 2.77 0 0 0-1.13-1.12c-.48-.26-1.03-.39-1.64-.39s-1.2.14-1.68.41c-.49.27-.87.66-1.14 1.16-.27.5-.41 1.09-.41 1.75s.14 1.24.41 1.74.66.89 1.15 1.17c.49.28 1.05.41 1.67.41.77 0 1.41-.2 1.94-.6.53-.4.88-.91 1.07-1.53h-1.75c-.26.52-.69.78-1.29.78-.42 0-.77-.13-1.06-.39-.29-.26-.45-.63-.49-1.09h4.71c.03-.19.05-.4.05-.63Zm-4.74-.47c.06-.43.23-.77.5-1.02.28-.24.61-.37 1.02-.37.43 0 .79.13 1.08.38.29.25.45.59.45 1.01H7.31Zm16.34 1.98-1.56-6.26h-1.81l-1.65 6.3-1.43-6.3h-1.74l2.18 8.12 1.91-.01 1.59-5.77 1.52 5.77h1.92l2.26-8.11H25.1l-1.44 6.26zm9.17-4.36c-.38-.21-.81-.32-1.3-.32-.43 0-.81.08-1.16.24-.35.16-.63.38-.84.66v-2.96H27.9v8.6h1.63v-3.56c0-.51.13-.9.39-1.18.26-.28.61-.41 1.06-.41s.79.14 1.05.41c.26.28.38.67.38 1.18v3.56h1.63V20.9c0-.58-.11-1.08-.32-1.49-.21-.41-.51-.73-.89-.94Zm7.4.69a2.61 2.61 0 0 0-.87-.73c-.36-.19-.78-.29-1.26-.29a2.803 2.803 0 0 0-2.55 1.57c-.26.5-.39 1.08-.39 1.73s.13 1.24.39 1.75.61.9 1.06 1.18c.45.28.94.42 1.48.42.48 0 .9-.1 1.27-.3.37-.2.66-.45.87-.75v.94h1.64v-6.44h-1.64v.92ZM40 22.46c-.15.28-.36.5-.63.65-.26.15-.55.23-.85.23s-.57-.08-.83-.23c-.26-.15-.47-.38-.63-.67s-.24-.63-.24-1.02.08-.72.24-1c.16-.28.37-.5.62-.65s.53-.22.84-.22.58.08.85.23c.26.15.47.37.63.65.16.28.23.62.23 1.02s-.08.73-.23 1.02Zm5.36-5.83h-1.64v1.59h-.77v1.34h.77v3.1c0 1.33.69 2 2.06 2h1.02v-1.37h-.76c-.25 0-.42-.05-.53-.14-.1-.1-.16-.25-.16-.47v-3.11h1.44v-1.34h-1.44v-1.59Zm7.05 5.14c0 .51-.13.9-.38 1.18-.26.28-.61.41-1.06.41s-.79-.14-1.05-.41c-.26-.28-.38-.67-.38-1.18v-3.54h-1.63V22c0 .57.11 1.07.33 1.48.22.41.52.73.91.94.39.21.83.32 1.34.32.39 0 .76-.08 1.1-.24.34-.16.61-.38.82-.66v.81h1.64v-6.44h-1.64v3.54Zm11.86-4.8c-.63-.36-1.33-.53-2.1-.53s-1.46.18-2.09.53c-.64.36-1.14.85-1.51 1.48-.37.63-.56 1.34-.56 2.13s.19 1.51.56 2.14.87 1.12 1.51 1.48c.63.36 1.33.53 2.09.53s1.46-.18 2.09-.53a3.88 3.88 0 0 0 1.5-1.48c.37-.63.55-1.35.55-2.14s-.18-1.5-.55-2.13a4.02 4.02 0 0 0-1.5-1.48Zm.06 5.04c-.21.41-.5.73-.87.95-.37.22-.8.33-1.29.33s-.92-.11-1.3-.33a2.25 2.25 0 0 1-.88-.95c-.21-.41-.31-.89-.31-1.43s.1-1.02.31-1.42.5-.72.88-.93c.38-.22.81-.33 1.3-.33s.92.11 1.29.33c.37.22.66.53.87.93.21.41.31.88.31 1.42s-.1 1.02-.31 1.43Zm4.83-2.79v-1h-1.63v6.44h1.63v-3.21c0-.6.13-1.01.39-1.25s.64-.36 1.16-.36h.43v-1.71c-.43 0-.82.1-1.16.29-.34.19-.61.46-.82.8Zm7.71-.08a2.61 2.61 0 0 0-.87-.73c-.36-.19-.78-.29-1.26-.29a2.803 2.803 0 0 0-2.55 1.57c-.26.5-.39 1.08-.39 1.73s.13 1.24.39 1.75.61.9 1.06 1.18c.45.28.94.42 1.48.42.48 0 .9-.1 1.27-.3.37-.2.66-.45.87-.75v.94h1.64v-6.44h-1.64v.92Zm-.23 3.32c-.15.28-.36.5-.63.65-.26.15-.55.23-.85.23s-.57-.08-.83-.23c-.26-.15-.47-.38-.63-.67-.16-.29-.24-.63-.24-1.02s.08-.72.24-1c.16-.28.37-.5.62-.65s.53-.22.84-.22.58.08.85.23c.26.15.47.37.63.65.16.28.23.62.23 1.02s-.08.73-.23 1.02Z" style="fill:#2dccd3">
	</path>
</svg>
