<svg fill="none" viewBox="0 0 217 48" id="logo-light-theme" xmlns="http://www.w3.org/2000/svg"><path fill="#13294B" d="M91.823 7.278a6.318 6.318 0 00-3.305-.8 6.609 6.609 0 00-2.75.571 7.18 7.18 0 00-2.24 1.55c-.064.067-.121.138-.179.209-.02.025-.04.051-.062.076V0h-5.145v24.2h5.237V13.802a2.636 2.636 0 01.245-1.143c.16-.351.388-.668.67-.932.289-.277.633-.49 1.011-.623.41-.145.841-.217 1.275-.212a2.773 2.773 0 011.492.309c.406.233.722.595.898 1.029.208.547.307 1.13.292 1.715v10.234h5.265v-10.64a9.76 9.76 0 00-.686-3.876 4.974 4.974 0 00-2.018-2.384zm-24.6 7.49c.085-.43.205-.887.36-1.458l3.384-11.972h5.529l-6.86 22.868h-4.249L60.293 11.84l-4.722 12.366h-4.38l-6.86-22.868h5.654l3.43 12.006c.155.543.292 1.08.407 1.652.122.538.219 1.052.291 1.544a21.585 21.585 0 01.772-3.196l3.43-9.062h4.425l3.34 9.045c.256.72.48 1.395.65 2.03.092.337.178.663.247.983.005-.048.013-.095.02-.142.016-.094.031-.188.031-.287.04-.332.109-.715.195-1.143z"></path><path fill="#13294B" fill-rule="evenodd" d="M29.552 7.129a7.827 7.827 0 012.635 1.83 8.073 8.073 0 011.698 2.795c.4 1.121.58 2.31.526 3.499l-.034 1.406H22.445c.098.37.24.728.423 1.064a4.11 4.11 0 001.778 1.652 6.026 6.026 0 002.767.572c.674.01 1.344-.1 1.978-.326a7.602 7.602 0 001.881-1.11l2.459 3.465a10.028 10.028 0 01-2.167 1.464 11.2 11.2 0 01-2.338.777c-.778.182-1.574.274-2.373.275a10.25 10.25 0 01-5.002-1.143 8.41 8.41 0 01-3.305-3.173 8.924 8.924 0 01-1.178-4.574 9.855 9.855 0 01.658-3.665 8.69 8.69 0 011.83-2.893 8.112 8.112 0 012.795-1.898 9.216 9.216 0 013.55-.669 8.416 8.416 0 013.35.652zm-6.815 5.706c-.09.193-.165.394-.223.6h7.003a2.86 2.86 0 00-.474-1.218 2.99 2.99 0 00-1.144-1 3.603 3.603 0 00-1.635-.36 4.374 4.374 0 00-2.172.508 3.219 3.219 0 00-1.355 1.47z" clip-rule="evenodd"></path><path fill="#13294B" d="M195.955 6.477c.369-.004.736.028 1.098.097.314.06.626.136.932.229l-1.441 5.786a3.334 3.334 0 00-.96-.372 5.105 5.105 0 00-1.264-.149 3.547 3.547 0 00-1.338.246 2.69 2.69 0 00-1.046.703c-.292.313-.519.68-.669 1.08a3.743 3.743 0 00-.246 1.402V24.2h-5.265V6.86h4.968l.109 2.607c.133-.199.278-.39.434-.572a6.776 6.776 0 012.11-1.766 5.346 5.346 0 012.578-.652zM19.33 1.31H0l2.361 4.905h4.442V24.2h5.558V6.215h6.969V1.31z"></path><path fill="#13294B" fill-rule="evenodd" d="M176.421 1.67a11.379 11.379 0 013.762 2.486 11.13 11.13 0 012.469 3.756c.592 1.512.887 3.123.869 4.746a12.623 12.623 0 01-.874 4.716 11.143 11.143 0 01-2.464 3.78 11.378 11.378 0 01-3.757 2.492 12.334 12.334 0 01-4.711.88 12.471 12.471 0 01-4.773-.88 11.268 11.268 0 01-6.255-6.249 12.382 12.382 0 01-.88-4.74 12.41 12.41 0 01.88-4.745 11.294 11.294 0 016.249-6.243 13.15 13.15 0 019.485 0zm-.332 15.744a6.294 6.294 0 001.309-2.11 7.326 7.326 0 00.441-2.646 7.386 7.386 0 00-.458-2.653 6.222 6.222 0 00-1.292-2.104 5.831 5.831 0 00-1.921-1.395 6.519 6.519 0 00-4.94 0 6.076 6.076 0 00-3.31 3.499 7.802 7.802 0 00-.44 2.653 7.87 7.87 0 00.44 2.664 5.92 5.92 0 001.292 2.11 6.186 6.186 0 006.918 1.372 5.717 5.717 0 001.961-1.39z" clip-rule="evenodd"></path><path fill="#13294B" d="M142.003 17.203c.006.41-.072.816-.229 1.195-.15.353-.365.675-.634.949-.28.285-.615.51-.984.663-.4.157-.827.234-1.257.229a2.941 2.941 0 01-1.573-.406 2.53 2.53 0 01-.977-1.144 4.428 4.428 0 01-.332-1.8V6.86h-5.265v10.703a8.786 8.786 0 00.743 3.762 5.459 5.459 0 002.092 2.401c.993.587 2.13.884 3.282.858a6.535 6.535 0 002.716-.572c.83-.369 1.578-.9 2.201-1.561.146-.154.284-.316.411-.486l.143 2.235h4.94V6.86h-5.265l-.012 10.343z"></path><path fill="#13294B" fill-rule="evenodd" d="M210.809 8.993V6.86H216V24.2h-5.299v-2.07c-.328.385-.7.729-1.109 1.024a7.29 7.29 0 01-1.899.984 7.12 7.12 0 01-6.134-.8 8.164 8.164 0 01-2.727-3.208 10.207 10.207 0 01-1.018-4.631 10.29 10.29 0 011.035-4.67 8.002 8.002 0 012.779-3.185A7.126 7.126 0 01205.63 6.5c.777-.01 1.55.112 2.286.36a6.078 6.078 0 011.818.99c.403.336.764.72 1.075 1.143zm-1.789 10.53a3.698 3.698 0 001.372-1.583 5.65 5.65 0 00.497-2.441 5.625 5.625 0 00-.491-2.436 3.812 3.812 0 00-1.373-1.6 3.745 3.745 0 00-2.092-.572 3.615 3.615 0 00-2.047.572 3.853 3.853 0 00-1.355 1.6 5.537 5.537 0 00-.491 2.436c-.023.84.145 1.675.491 2.441a3.736 3.736 0 001.35 1.584 3.692 3.692 0 002.046.572 3.838 3.838 0 002.093-.572z" clip-rule="evenodd"></path><path fill="#13294B" d="M125.452 2.453h-5.232v4.385h-3.075v4.574h3.075v12.79h5.232v-12.79h3.367V6.838h-3.367V2.453z"></path><path fill="#13294B" fill-rule="evenodd" d="M108.734 7.826a6.77 6.77 0 011.081 1.144l.023-2.11h5.197V24.2h-5.3v-2.07c-.328.385-.7.729-1.109 1.024a7.206 7.206 0 01-1.921.99 7.112 7.112 0 01-6.129-.801 8.141 8.141 0 01-2.733-3.208 10.29 10.29 0 01-1.012-4.63 10.365 10.365 0 011.012-4.677 8.002 8.002 0 012.779-3.184 7.139 7.139 0 014.002-1.144c.777-.01 1.55.11 2.286.36a6.069 6.069 0 011.824.966zm-.72 11.698a3.691 3.691 0 001.372-1.584 5.654 5.654 0 00.463-2.424 5.612 5.612 0 00-.492-2.435 3.802 3.802 0 00-1.372-1.601 3.75 3.75 0 00-2.092-.572 3.626 3.626 0 00-2.047.572 3.853 3.853 0 00-1.355 1.6 5.64 5.64 0 00-.492 2.436c-.019.84.149 1.674.492 2.441a3.573 3.573 0 003.43 2.139 3.838 3.838 0 002.093-.572z" clip-rule="evenodd"></path><path fill="#0C818F" d="M41.312 32.697h-2.476v14.78h2.476v-14.78zm15.973 4.036c.7-.025 1.394.141 2.007.48.559.33.993.834 1.235 1.435.297.765.437 1.581.412 2.401v6.404H58.48v-6.226a3.534 3.534 0 00-.217-1.327 1.532 1.532 0 00-.68-.783 2.212 2.212 0 00-1.144-.229 2.732 2.732 0 00-.983.172 2.374 2.374 0 00-.778.48 2.443 2.443 0 00-.52.709 2.023 2.023 0 00-.189.88v6.324h-2.452V32.708h2.435v5.717a3.34 3.34 0 01.32-.383c.396-.4.863-.723 1.378-.949a3.927 3.927 0 011.635-.36z"></path><path fill="#0C818F" fill-rule="evenodd" d="M33.88 38.448V36.95h2.549v10.502h-2.498V45.99c-.239.314-.524.59-.847.818a4.912 4.912 0 01-1.217.628 4.214 4.214 0 01-1.43.24 4.116 4.116 0 01-2.355-.714A5.145 5.145 0 0126.367 45a6.51 6.51 0 010-5.632 4.888 4.888 0 011.715-1.938c.74-.467 1.6-.709 2.475-.697a4.38 4.38 0 011.458.229c.418.145.806.366 1.144.651a3.8 3.8 0 01.72.835zm-1.322 6.609c.442-.28.798-.675 1.03-1.143a3.854 3.854 0 00.371-1.716 3.752 3.752 0 00-.371-1.715 2.859 2.859 0 00-1.03-1.143 2.755 2.755 0 00-1.515-.418 2.692 2.692 0 00-1.509.418c-.436.28-.786.676-1.012 1.143a3.905 3.905 0 00-.354 1.715c-.01.591.11 1.177.354 1.716a2.8 2.8 0 001.012 1.143c.45.287.976.434 1.51.423a2.756 2.756 0 001.515-.423z" clip-rule="evenodd"></path><path fill="#0C818F" d="M79.188 37.694v1.623c0 .509 0 1.006.051 1.47.03.268.04.532.051.79.008.186.015.37.03.547.034.423.068.835.108 1.23 0 .075.011.145.022.216.007.042.014.084.018.127l-7.547-10.2h-2.338v13.956h2.578v-5.958c0-.188 0-.44-.04-.691a6.347 6.347 0 01-.052-.652l-.016-.297c-.022-.353-.058-.77-.1-1.252l-.009-.103a5.37 5.37 0 00-.053-.629 14.123 14.123 0 01-.038-.343l7.535 9.925h2.367V33.497h-2.579l.012 4.197z"></path><path fill="#0C818F" fill-rule="evenodd" d="M23.891 39.838a5.66 5.66 0 01.332 2.07l-.017.811H16.47c.052.402.18.79.377 1.144.283.494.707.892 1.218 1.143a3.946 3.946 0 001.846.412c.465.005.926-.077 1.36-.24.491-.21.943-.5 1.339-.858l1.217 1.715a5.336 5.336 0 01-1.229.847c-.46.242-.945.434-1.446.571a5.716 5.716 0 01-1.555.235 5.928 5.928 0 01-2.927-.698 5.083 5.083 0 01-1.979-1.91 5.323 5.323 0 01-.708-2.76 6.082 6.082 0 01.4-2.288 5.3 5.3 0 011.109-1.766 4.781 4.781 0 011.715-1.144 5.563 5.563 0 012.167-.406 4.772 4.772 0 011.938.395c.585.259 1.113.63 1.555 1.092a4.575 4.575 0 011.023 1.635zM16.5 41.09h5.328l-.022-.114a2.139 2.139 0 00-.4-1.087 2.435 2.435 0 00-.87-.743 2.572 2.572 0 00-1.143-.269 3.247 3.247 0 00-1.67.395 2.39 2.39 0 00-.989 1.086 3.055 3.055 0 00-.234.732z" clip-rule="evenodd"></path><path fill="#0C818F" d="M3.178 39.289h6.369v-5.792h2.595v13.979H9.547v-5.752h-6.37v5.752H.583V33.497h2.596v5.792zm44.366-5.014h-2.459v2.682H43.01v2.275h2.075v8.25h2.459v-8.25h2.298v-2.275h-2.298v-2.682z"></path><path fill="#0C818F" fill-rule="evenodd" d="M167.312 38.448V36.95h2.487v10.502h-2.504v-1.446a3.84 3.84 0 01-.846.818 5.039 5.039 0 01-1.224.629 4.285 4.285 0 01-3.733-.492A5.149 5.149 0 01159.777 45a6.503 6.503 0 010-5.632 4.918 4.918 0 011.715-1.938 4.573 4.573 0 012.481-.697c.496-.007.989.07 1.458.229a3.691 3.691 0 011.881 1.486zm-1.315 6.609c.441-.28.797-.675 1.029-1.143a3.849 3.849 0 00.366-1.716 3.739 3.739 0 00-.366-1.715 2.858 2.858 0 00-1.029-1.143 2.76 2.76 0 00-1.521-.418 2.686 2.686 0 00-1.503.418c-.436.28-.786.676-1.012 1.143a3.818 3.818 0 00-.36 1.715 3.919 3.919 0 00.36 1.716 2.8 2.8 0 001.012 1.143 2.69 2.69 0 001.503.423 2.761 2.761 0 001.521-.423z" clip-rule="evenodd"></path><path fill="#0C818F" d="M179.833 37.214a3.865 3.865 0 00-2.007-.48 3.93 3.93 0 00-1.635.36 4.383 4.383 0 00-1.378.95 3.12 3.12 0 00-.331.4l-.029-1.493h-2.401v10.503h2.458V41.13a2.027 2.027 0 01.189-.88 2.334 2.334 0 011.298-1.19c.316-.116.651-.174.989-.17.394-.028.789.05 1.143.228.31.176.55.452.68.783.157.424.231.875.218 1.327v6.226h2.458V41.05a6.117 6.117 0 00-.412-2.4 2.994 2.994 0 00-1.24-1.436zm-24.979-4.517h2.476v14.78h-2.476v-14.78z"></path><path fill="#0C818F" fill-rule="evenodd" d="M194.297 46.024a7.371 7.371 0 01-.572-1.36 6.515 6.515 0 01-.114-1.024V32.697h-2.453v5.477a4.03 4.03 0 00-.6-.571 4.735 4.735 0 00-3.308-.854 4.72 4.72 0 00-1.935.676 4.99 4.99 0 00-1.749 1.95 6.067 6.067 0 00-.618 2.83c-.02.98.204 1.951.652 2.824a5.012 5.012 0 001.755 1.938c.75.475 1.622.722 2.51.71.478 0 .953-.077 1.407-.23a4.42 4.42 0 001.206-.606 3.75 3.75 0 00.749-.72l.034 1.355h4.277a10.17 10.17 0 01-1.241-1.452zm-3.43-2.058a2.967 2.967 0 01-1.029 1.195 2.859 2.859 0 01-3.036 0 2.95 2.95 0 01-.995-1.195 4.385 4.385 0 010-3.505c.223-.489.58-.905 1.029-1.2a2.9 2.9 0 013.036 0c.449.295.806.711 1.029 1.2a4.318 4.318 0 010 3.505h-.034zm-40.975-5.518V36.95h2.532v10.502h-2.498V45.99c-.238.314-.524.59-.846.818a5.046 5.046 0 01-1.224.628 4.287 4.287 0 01-3.785-.474A5.225 5.225 0 01142.356 45a6.56 6.56 0 010-5.632 4.982 4.982 0 011.715-1.938 4.579 4.579 0 012.482-.697c.495-.007.988.07 1.458.229.417.146.804.367 1.143.651.286.24.534.522.738.835zm-1.315 6.609c.441-.28.797-.675 1.029-1.143a3.863 3.863 0 00.366-1.716 3.751 3.751 0 00-.366-1.715 2.858 2.858 0 00-1.029-1.143 2.762 2.762 0 00-1.521-.418 2.687 2.687 0 00-1.504.418c-.436.28-.786.676-1.012 1.143a3.831 3.831 0 00-.36 1.715c-.01.592.113 1.178.36 1.716.225.467.576.863 1.012 1.143.449.286.972.434 1.504.423a2.763 2.763 0 001.521-.423z" clip-rule="evenodd"></path><path fill="#0C818F" d="M105.727 43.748l-2.327-5.22h-1.475l-2.31 5.306-2.167-6.9-2.515.023 3.533 10.525h1.738l2.378-5.843 2.499 5.843h1.755l3.556-10.525h-2.516l-2.149 6.791zm22.514-10.25v1.794l-7.278 9.788h7.495v2.401h-11.022v-1.818l7.283-9.73h-6.763v-2.436h10.285z"></path><path fill="#0C818F" fill-rule="evenodd" d="M140.241 41.908a5.675 5.675 0 00-.332-2.07 4.572 4.572 0 00-.983-1.635 4.877 4.877 0 00-1.561-1.092 4.729 4.729 0 00-1.933-.395 5.56 5.56 0 00-2.166.406 4.787 4.787 0 00-1.716 1.144 5.3 5.3 0 00-1.109 1.766 6.076 6.076 0 00-.4 2.287 5.325 5.325 0 00.709 2.762 5.05 5.05 0 001.978 1.91 5.935 5.935 0 002.922.697c.506 0 1.009-.067 1.498-.2.503-.138.99-.33 1.452-.572a5.342 5.342 0 001.229-.846l-1.224-1.715a4.66 4.66 0 01-1.337.857 3.713 3.713 0 01-1.355.24 3.93 3.93 0 01-1.847-.411 2.858 2.858 0 01-1.218-1.144 3.235 3.235 0 01-.377-1.143h7.752l.018-.846zm-2.396-.818h-5.334a3.32 3.32 0 01.24-.732 2.408 2.408 0 011.006-1.086 3.263 3.263 0 011.653-.383c.396 0 .788.092 1.143.269.345.175.642.43.869.743a2.2 2.2 0 01.4 1.086l.023.103zm-43.96-1.252a5.66 5.66 0 01.333 2.07l-.04.846h-7.759c.056.4.184.788.378 1.143.283.494.707.892 1.217 1.144a3.95 3.95 0 001.853.411 3.71 3.71 0 001.355-.24c.49-.21.942-.5 1.338-.858l1.217 1.716c-.367.34-.78.624-1.229.846-.46.244-.944.435-1.446.572-.488.133-.992.2-1.498.2a5.94 5.94 0 01-2.927-.698 5.032 5.032 0 01-1.973-1.91 5.322 5.322 0 01-.709-2.76 6.202 6.202 0 01.395-2.288 5.482 5.482 0 011.109-1.766 4.881 4.881 0 011.715-1.144 5.58 5.58 0 012.167-.406 4.776 4.776 0 013.499 1.487 4.769 4.769 0 011.006 1.635zm-7.397 1.252h5.328l-.028-.103a2.19 2.19 0 00-.395-1.086 2.482 2.482 0 00-.869-.743 2.578 2.578 0 00-1.143-.27 3.247 3.247 0 00-1.647.384 2.378 2.378 0 00-1.006 1.086c-.11.233-.191.479-.24.732z" clip-rule="evenodd"></path></svg>